<svg width="240" height="240" viewBox="0 0 240 240" fill="none" xmlns="http://www.w3.org/2000/svg">
<path fill-rule="evenodd" clip-rule="evenodd" d="M140.37 108.613L140.043 108.03C139.622 107.325 139.028 106.738 138.317 106.327L122.66 97.2967C121.951 96.8855 121.146 96.6682 120.327 96.6667H119.65C118.83 96.6682 118.026 96.8855 117.317 97.2967L101.66 106.35C100.953 106.759 100.366 107.346 99.9567 108.053L99.63 108.637C99.2187 109.346 99.0015 110.15 99 110.97V129.053C99.0015 129.873 99.2187 130.678 99.63 131.387L99.9567 131.97C100.376 132.669 100.961 133.254 101.66 133.673L117.34 142.703C118.045 143.123 118.853 143.341 119.673 143.333H120.327C121.146 143.332 121.951 143.115 122.66 142.703L138.317 133.65C139.031 133.25 139.62 132.661 140.02 131.947L140.37 131.363C140.776 130.652 140.993 129.849 141 129.03V110.947C140.999 110.127 140.781 109.322 140.37 108.613ZM119.65 101.333H120.327L134 109.22L120 117.293L106 109.22L119.65 101.333ZM122.333 137.5L135.983 129.613L136.333 129.03V113.257L122.333 121.353V137.5Z" fill="white"/>
<circle cx="120" cy="60" r="8.5" stroke="white" stroke-width="3"/>
<circle cx="60" cy="120" r="8.5" stroke="white" stroke-width="3"/>
<circle cx="181" cy="120" r="8.5" stroke="white" stroke-width="3"/>
<circle cx="120" cy="180" r="8.5" stroke="white" stroke-width="3"/>
<path fill-rule="evenodd" clip-rule="evenodd" d="M126.862 61.3947C126.953 60.944 127 60.4776 127 60C127 59.4387 126.934 58.8927 126.81 58.3696C154.54 61.3989 176.775 82.7145 181.199 110.002C181.133 110.001 181.067 110 181 110C180.036 110 179.104 110.136 178.222 110.391C173.997 84.5945 153.04 64.4265 126.862 61.3947ZM113.139 61.3947C87.0371 64.4176 66.1272 84.4765 61.8166 110.165C61.2276 110.056 60.6206 110 60.0005 110C59.5911 110 59.1875 110.025 58.791 110.072C63.188 82.7512 85.437 61.4015 113.191 58.3696C113.067 58.8927 113 59.4387 113 60C113 60.4776 113.048 60.944 113.139 61.3947ZM178.222 129.609C174.158 154.421 154.616 174.026 129.836 178.184C129.944 178.773 130 179.38 130 180C130 180.409 129.976 180.813 129.928 181.209C156.195 176.982 176.942 156.255 181.199 129.998C181.133 129.999 181.067 130 181 130C180.036 130 179.104 129.864 178.222 129.609ZM61.8166 129.835C65.9622 154.54 85.4604 174.038 110.165 178.184C110.057 178.773 110 179.38 110 180C110 180.409 110.025 180.813 110.073 181.209C83.7829 176.978 63.0221 156.218 58.791 129.928C59.1875 129.975 59.5911 130 60.0005 130C60.6206 130 61.2276 129.944 61.8166 129.835Z" fill="white"/>
</svg>
