<svg width="240" height="240" viewBox="0 0 240 240" fill="none" xmlns="http://www.w3.org/2000/svg">
<path fill-rule="evenodd" clip-rule="evenodd" d="M140.37 61.9467L140.043 61.3633C139.622 60.6579 139.028 60.0717 138.317 59.66L122.66 50.63C121.951 50.2187 121.146 50.0015 120.327 50H119.65C118.83 50.0015 118.026 50.2187 117.317 50.63L101.66 59.6833C100.953 60.0923 100.366 60.6796 99.9567 61.3867L99.63 61.97C99.2187 62.679 99.0015 63.4837 99 64.3033V82.3867C99.0015 83.2063 99.2187 84.011 99.63 84.72L99.9567 85.3033C100.376 86.0022 100.961 86.5872 101.66 87.0067L117.34 96.0367C118.045 96.4565 118.853 96.6744 119.673 96.6667H120.327C121.146 96.6652 121.951 96.4479 122.66 96.0367L138.317 86.9833C139.031 86.5836 139.62 85.9941 140.02 85.28L140.37 84.6967C140.776 83.9856 140.993 83.1822 141 82.3633V64.28C140.999 63.4604 140.781 62.6556 140.37 61.9467ZM119.65 54.6666H120.327L134 62.5533L120 70.6266L106 62.5533L119.65 54.6666ZM122.333 90.8334L135.983 82.9467L136.333 82.3634V66.59L122.333 74.6867V90.8334Z" fill="white"/>
<rect x="52.5" y="149.5" width="39" height="39" rx="10.5" stroke="white" stroke-width="3"/>
<circle cx="72" cy="123" r="6" fill="white"/>
<circle cx="170" cy="123" r="6" fill="white"/>
<rect x="101.5" y="149.5" width="39" height="39" rx="10.5" stroke="white" stroke-width="3"/>
<path d="M106 153L137 185" stroke="white" stroke-width="3"/>
<path d="M105.5 184.5L137.5 153.5" stroke="white" stroke-width="3"/>
<rect x="150.5" y="149.5" width="39" height="39" rx="10.5" stroke="white" stroke-width="3"/>
<path fill-rule="evenodd" clip-rule="evenodd" d="M118.5 113.112C118.989 113.038 119.49 113 120 113C120.51 113 121.011 113.038 121.5 113.112V96L118.5 96V113.112ZM129.888 121.5C129.962 121.989 130 122.49 130 123C130 123.51 129.962 124.011 129.888 124.5H168.5V149H171.5V123V121.5H170H129.888ZM121.5 132.888C121.011 132.962 120.51 133 120 133C119.49 133 118.989 132.962 118.5 132.888L118.5 149H121.5L121.5 132.888ZM110.112 124.5C110.038 124.011 110 123.51 110 123C110 122.49 110.038 121.989 110.112 121.5H72H70.5V123V149H73.5V124.5H110.112Z" fill="white"/>
<circle cx="120" cy="123" r="8.5" stroke="white" stroke-width="3"/>
</svg>
